<?xml version="1.0" encoding="utf-8"?>
<!-- Generator: Adobe Illustrator 25.4.1, SVG Export Plug-In . SVG Version: 6.00 Build 0)  -->
<svg version="1.1" id="Layer_1" xmlns="http://www.w3.org/2000/svg" xmlns:xlink="http://www.w3.org/1999/xlink" x="0px" y="0px"
	 viewBox="0 0 1366 768" style="enable-background:new 0 0 1366 768;" xml:space="preserve">
<style type="text/css">
	.st0{fill:none;stroke:#21409A;stroke-width:10;stroke-miterlimit:10;}
	.st1{fill:#21409A;}
</style>
<ellipse class="st0" cx="718" cy="443.5" rx="437.5" ry="167.5"/>
<g>
	<g>
		<path class="st1" d="M382.54,494.78c7.43,16.8,16.38,31.48,27.45,46.16c-19.22-7.74-38.26-16.07-55.8-27.21
			c-23.06-17.1-48.2-38.88-48.2-70.23s25.14-53.12,48.2-70.23c8.2-5.16,12.68-7.66,22.28-12.49c-37.14,36.18-55.09,77.19-31.8,126.5
			C357.24,490.09,369.87,492.57,382.54,494.78z"/>
		<path class="st1" d="M412.94,542.07c-46.91-64.33-46.9-132.82,0-197.13c16.78-6.27,33.81-11.5,51.04-16.34
			c11.4-3.08,17.15,0.71,18.27,12c1.42,14.34-0.73,28.68-3.27,42.68c-2.1,11.59-5.46,23.27-10.24,34.17
			c-4.51,10.3-10.12,17.41-17.25,21.23c21.55,10.23,25.94,38.66,29.76,59.35c2.86,15.44,4.02,32.04,3.97,47.26
			c-0.05,13.64-14.19,16.1-24.64,12.21C444.52,552.88,428.61,547.93,412.94,542.07z M409.47,417.13c6.58-0.42,9.93-0.63,16.74-1.03
			c4.27-0.25,7.58-2.54,10.01-6.92c2.43-4.37,4.11-9.01,5.12-13.8c2.72-13.02,0.77-18.8-7.13-17.62c-6.33,0.95-9.44,1.43-15.55,2.43
			C414.41,392.17,411.3,404.55,409.47,417.13z M418.04,505.08c6.68,1.06,10.09,1.57,17.03,2.57c4.31,0.62,6.88-1,7.85-4.98
			c0.97-3.98,0.92-8.7-0.12-14.11c-1.04-5.41-2.84-10.51-5.5-15.21c-2.66-4.7-6.65-7.15-12.04-7.41c-6.69-0.32-9.97-0.49-16.43-0.83
			C410.46,478.72,413.59,492.13,418.04,505.08z"/>
		<path class="st1" d="M616.35,584.38c-11.18-1.05-22.33-2.21-33.49-3.49c-20-39.59-38.64-79.61-53.72-121.35
			c-6.48-18.16-10.28-37.02-13.24-56.03c0.55,14.76,1.28,29.52,1.48,44.29c1.06,43.29,7.68,84.99,19.93,126.51
			c-10.08-1.69-20.16-3.57-30.17-5.66c-30.28-82.83-30.28-167.49,0-250.31c11.71-2.42,23.48-4.58,35.28-6.51
			c0.9,31.97,7.19,63.16,15.1,94.04c4.88,18.08,9.92,36.12,14.42,54.3c-2.53-24.91-2.88-49.35-1.1-74.32
			c2.65-26.88,6.61-53.29,12.03-79.75c11.16-1.28,22.3-2.44,33.49-3.49C602.5,396.39,602.5,490.61,616.35,584.38z"/>
		<path class="st1" d="M785.71,300.16c9.11,95.5,9.11,191.19,0,286.68c-13.53,0.78-27.08,1.32-40.63,1.62
			c2.59-69.62,3.32-139.25,2.26-208.91c-8.67,69.89-19.5,139.47-29.23,209.21c-9.46,0.01-18.94-0.1-28.4-0.33
			c-12.55-69.23-24.45-138.5-32.23-208.45c-2.2,69.27-0.69,138.39,4.7,207.48c-10.74-0.56-21.47-1.14-32.19-1.97
			c-11.93-94.55-11.93-189.43,0-283.98c18.88-1.32,37.74-2.27,56.66-2.87c5.26,51.6,12.5,102.94,20,154.25
			c7.16-51.53,14.83-103,21.35-154.62C747.25,298.54,766.47,299.16,785.71,300.16z"/>
		<path class="st1" d="M873.4,578.24c1.96-16.9,2.52-33.87,2.68-50.87c-12.64,0.95-25.29,1.78-37.95,2.49
			c-4.87,18.19-10.08,36.25-15.6,54.26c-11.47,0.98-22.93,1.84-34.42,2.58c23.92-92.72,43.09-186.89,42.48-283.06
			c14.29,1.49,28.52,3.18,42.76,5.11c33.1,83.96,54.59,172.76,39.21,263.1C899.55,574.27,886.49,576.39,873.4,578.24z M850.1,467.91
			c9.61-0.15,14.37-0.24,23.78-0.42c-3.17-27.73-7.87-55.02-13.89-82.26C858.09,413.01,854.72,440.46,850.1,467.91z"/>
		<path class="st1" d="M1007.85,339.48c43.99,68.1,43.98,139.97,0,208.04c-10.38,3.56-20.88,6.64-31.42,9.68
			c14.36-28.09,23.83-56.15,28.51-87.38c-9.72,0.53-19.44,1.02-29.17,1.47c-3.96,32.35-12.34,62.57-25.15,92.54
			c-11.93,2.82-23.93,5.36-35.98,7.63c27.99-84.81,27.99-171.12,0-255.93c12.05,2.27,24.05,4.8,35.98,7.63
			c12.09,28.37,20.22,56.75,24.57,87.28c9.7,0.54,19.4,1.12,29.09,1.75c-5.02-29.36-14.26-55.92-27.85-82.4
			C986.96,332.84,997.47,335.91,1007.85,339.48z"/>
		<path class="st1" d="M1035.59,488.98c11.04-4.74,22.09-9.43,33.18-14.05c-1.74,15.34-0.01,21.33,9.18,19.22
			c7.15-1.65,12.73-5.86,15.94-12.76c1.68-3.61,1.96-6.32,1.04-8.15c-0.93-1.83-3.33-3.31-7.33-4.52
			c-13.28-3.24-25.83-11.95-31.66-24.18c-6.08-12.77-9.75-26.95-13.41-40.75c-3.87-14.58-8.46-29.59-9.72-44.54
			c-0.8-9.52,3.43-11.04,14.27-5.72c23.73,11.65,48.48,29.92,66.21,49.76c-4.74,2.09-7.72,3.53-14.71,7.12
			c-5.26-8.65-13.33-17.54-23.19-20.16c-6.02-1.6-7.3,1.53-4.15,9.22c1.41,3.44,3.1,6.25,5.24,8.37c2.13,2.11,5.6,4.31,10.28,6.5
			c8.97,4.32,18.37,8.45,26.57,14.05c5.11,3.49,9.82,9.09,12.48,16.43c2.66,7.34,2.49,15.57-2.04,24.76
			c-7.86,15.92-23.25,28.07-37.45,38.34c-12.97,9.38-26.86,18.72-40.49,26.15C1019.89,548.22,1034.14,498.45,1035.59,488.98z"/>
	</g>
</g>
</svg>
